<?xml version="1.0" encoding="iso-8859-1"?>
<!-- Generator: Adobe Illustrator 19.1.0, SVG Export Plug-In . SVG Version: 6.00 Build 0)  -->
<svg version="1.1" id="Capa_1" xmlns="http://www.w3.org/2000/svg" xmlns:xlink="http://www.w3.org/1999/xlink" x="0px" y="0px"
	 viewBox="0 0 461.27 461.27" style="enable-background:new 0 0 461.27 461.27;" xml:space="preserve">
<g>
	<g id="XMLID_4_">
		<g>
			<path style="fill:#4489D3;" d="M354.26,363.87v49.24c0,21.59-17.56,39.16-39.16,39.16H146.17c-21.59,0-39.16-17.57-39.16-39.16
				v-49.24c8.75,12.21,23.03,20.18,39.16,20.18H315.1C331.23,384.05,345.52,376.08,354.26,363.87z"/>
			<path style="fill:#6BCE95;" d="M315.1,273.04c16.13,0,30.42-7.98,39.16-20.18v83.03c0,21.59-17.56,39.16-39.16,39.16H146.17
				c-21.59,0-39.16-17.57-39.16-39.16v-83.03c8.75,12.2,23.03,20.18,39.16,20.18H315.1z"/>
			<path style="fill:#3A75AA;" d="M315.1,133.1c21.6,0,39.16,17.56,39.16,39.16c0,10.46-4.07,20.29-11.46,27.69
				c-7.41,7.39-17.24,11.47-27.7,11.47h-0.26V133.1H315.1z"/>
			<path d="M251.01,32.47c4.29,0,7.77-3.47,7.81-7.75v-0.07c0-4.31-3.5-7.81-7.81-7.81c-4.31,0-7.81,3.5-7.81,7.81
				S246.7,32.47,251.01,32.47z M146.17,264.04H315.1c21.6,0,39.16-17.57,39.16-39.16v-24.59c-1.52,2.12-3.22,4.14-5.1,6.02
				c-9.11,9.1-21.2,14.11-34.06,14.11H146.17c-16.13,0-30.41-7.98-39.16-20.18v24.64C107.01,246.47,124.58,264.04,146.17,264.04z
				 M107.01,172.26c0,21.58,17.55,39.14,39.12,39.15V133.1c-10.44,0.01-20.26,4.08-27.66,11.46
				C111.08,151.96,107.01,161.79,107.01,172.26z M107.01,413.11c0,21.59,17.57,39.16,39.16,39.16H315.1
				c21.6,0,39.16-17.57,39.16-39.16v-49.24c-8.74,12.21-23.03,20.18-39.16,20.18H146.17c-16.13,0-30.41-7.97-39.16-20.18V413.11z
				 M107.01,335.89c0,21.59,17.57,39.16,39.16,39.16H315.1c21.6,0,39.16-17.57,39.16-39.16v-83.03
				c-8.74,12.2-23.03,20.18-39.16,20.18H146.17c-16.13,0-30.41-7.98-39.16-20.18V335.89z M315.1,211.42
				c10.46,0,20.29-4.08,27.7-11.47c7.39-7.4,11.46-17.23,11.46-27.69c0-21.6-17.56-39.16-39.16-39.16h-0.26v78.32H315.1z
				 M298.03,51.12c4.28,0,7.77-3.46,7.81-7.74v-0.07c0-4.31-3.5-7.81-7.81-7.81s-7.82,3.5-7.82,7.81S293.72,51.12,298.03,51.12z
				 M290.21,92.16c0,4.31,3.51,7.81,7.82,7.81c4.28,0,7.77-3.47,7.81-7.75V58.19c-2.34,1.23-4.99,1.93-7.81,1.93
				s-5.48-0.7-7.82-1.94V92.16z M363.26,172.26v240.85c0,26.56-21.6,48.16-48.16,48.16H146.17c-26.55,0-48.16-21.6-48.16-48.16
				V172.26c0-12.87,5.01-24.97,14.1-34.06c9.1-9.09,21.18-14.09,34.02-14.1V0h73.93v124.1h14.13V24.65h0.01
				c0-9.27,7.54-16.81,16.81-16.81c9.27,0,16.81,7.54,16.81,16.81c0,0.03,0,0.05,0,0.07v99.38h13.39V43.31
				c0-9.27,7.55-16.81,16.82-16.81s16.81,7.54,16.81,16.81c0,0.02,0,0.05,0,0.07v80.72h0.26
				C341.66,124.1,363.26,145.7,363.26,172.26z M305.84,211.42V107.03c-2.34,1.24-4.99,1.94-7.81,1.94s-5.48-0.71-7.82-1.94v104.39
				H305.84z M281.21,211.42V133.1h-13.39v78.32H281.21z M258.82,211.42V39.53c-2.34,1.23-4.99,1.94-7.81,1.94
				c-2.82,0-5.48-0.71-7.82-1.94v171.89H258.82z M234.19,211.42V133.1h-14.13v78.32H234.19z M211.06,211.42V9h-55.93v13.39h17.14v9
				h-17.14v15.84h17.14v9h-17.14v15.85h17.14v9h-17.14v15.84h17.14v9h-17.14v15.84h17.14v9h-17.14v15.84h17.14v9h-17.14v15.84h17.14
				v9h-17.14v15.84h17.14v9h-17.14v6.14H211.06z"/>
			<path style="fill:#F97946;" d="M305.84,107.03v104.39h-15.63V107.03c2.34,1.23,5,1.94,7.82,1.94S303.5,108.27,305.84,107.03z"/>
			<path style="fill:#F97946;" d="M298.03,99.97c-4.31,0-7.82-3.5-7.82-7.81V58.18c2.34,1.24,5,1.94,7.82,1.94s5.47-0.7,7.81-1.93
				v34.03C305.8,96.5,302.31,99.97,298.03,99.97z"/>
			<path style="fill:#F97946;" d="M298.03,51.12c-4.31,0-7.82-3.5-7.82-7.81s3.51-7.81,7.82-7.81s7.81,3.5,7.81,7.81v0.07
				C305.8,47.66,302.31,51.12,298.03,51.12z"/>
			<rect x="267.82" y="133.1" style="fill:#3A75AA;" width="13.39" height="78.32"/>
			<path style="fill:#F97946;" d="M258.82,39.53v171.89h-15.63V39.53c2.34,1.23,5,1.94,7.82,1.94
				C253.83,41.47,256.48,40.76,258.82,39.53z"/>
			<path style="fill:#F97946;" d="M258.82,24.65v0.07c-0.04,4.28-3.52,7.75-7.81,7.75c-4.31,0-7.81-3.51-7.81-7.82
				s3.5-7.81,7.81-7.81C255.32,16.84,258.82,20.34,258.82,24.65z"/>
			<rect x="220.06" y="133.1" style="fill:#3A75AA;" width="14.13" height="78.32"/>
			<polygon style="fill:#FFCC73;" points="211.06,9 211.06,211.42 155.13,211.42 155.13,205.28 172.27,205.28 172.27,196.28 
				155.13,196.28 155.13,180.44 172.27,180.44 172.27,171.44 155.13,171.44 155.13,155.6 172.27,155.6 172.27,146.6 155.13,146.6 
				155.13,130.76 172.27,130.76 172.27,121.76 155.13,121.76 155.13,105.92 172.27,105.92 172.27,96.92 155.13,96.92 155.13,81.08 
				172.27,81.08 172.27,72.08 155.13,72.08 155.13,56.23 172.27,56.23 172.27,47.23 155.13,47.23 155.13,31.39 172.27,31.39 
				172.27,22.39 155.13,22.39 155.13,9 			"/>
			<path style="fill:#4489D3;" d="M107.01,200.24c8.75,12.2,23.03,20.18,39.16,20.18H315.1c12.86,0,24.95-5.01,34.06-14.11
				c1.88-1.88,3.58-3.9,5.1-6.02v24.59c0,21.59-17.56,39.16-39.16,39.16H146.17c-21.59,0-39.16-17.57-39.16-39.16V200.24z"/>
			<path style="fill:#3A75AA;" d="M146.13,133.1v78.31c-21.57-0.01-39.12-17.57-39.12-39.15c0-10.47,4.07-20.3,11.46-27.7
				C125.87,137.18,135.69,133.11,146.13,133.1z"/>
		</g>
	</g>
</g>
<g>
</g>
<g>
</g>
<g>
</g>
<g>
</g>
<g>
</g>
<g>
</g>
<g>
</g>
<g>
</g>
<g>
</g>
<g>
</g>
<g>
</g>
<g>
</g>
<g>
</g>
<g>
</g>
<g>
</g>
</svg>
