<?xml version="1.0" encoding="iso-8859-1"?>
<!-- Generator: Adobe Illustrator 17.1.0, SVG Export Plug-In . SVG Version: 6.00 Build 0)  -->
<!DOCTYPE svg PUBLIC "-//W3C//DTD SVG 1.1//EN" "http://www.w3.org/Graphics/SVG/1.1/DTD/svg11.dtd">
<svg version="1.1" id="Capa_1" xmlns="http://www.w3.org/2000/svg" xmlns:xlink="http://www.w3.org/1999/xlink" x="0px" y="0px"
	 viewBox="0 0 479 479" style="enable-background:new 0 0 479 479;" xml:space="preserve">
<g>
	<path d="M431.5,0h-336C82.542,0,72,10.542,72,23.5V64h-8.5C41.72,64,24,81.72,24,103.5v64c0,21.78,17.72,39.5,39.5,39.5h168
		c13.509,0,24.5,10.991,24.5,24.5V256h-32.5c-12.958,0-23.5,10.542-23.5,23.5s10.542,23.5,23.5,23.5h0.5v129h-0.5
		c-12.958,0-23.5,10.542-23.5,23.5s10.542,23.5,23.5,23.5h80c12.958,0,23.5-10.542,23.5-23.5S316.458,432,303.5,432H303V303h0.5
		c12.958,0,23.5-10.542,23.5-23.5S316.458,256,303.5,256H271v-24.5c0-21.78-17.72-39.5-39.5-39.5h-168
		C49.991,192,39,181.009,39,167.5v-64C39,89.991,49.991,79,63.5,79H72v40.5c0,12.958,10.542,23.5,23.5,23.5h336
		c12.958,0,23.5-10.542,23.5-23.5v-96C455,10.542,444.458,0,431.5,0z M312,279.5c0,4.687-3.813,8.5-8.5,8.5h-8
		c-4.142,0-7.5,3.358-7.5,7.5v144c0,4.142,3.358,7.5,7.5,7.5h8c4.687,0,8.5,3.813,8.5,8.5s-3.813,8.5-8.5,8.5h-80
		c-4.687,0-8.5-3.813-8.5-8.5s3.813-8.5,8.5-8.5h8h40c4.142,0,7.5-3.358,7.5-7.5s-3.358-7.5-7.5-7.5H239V303h32.5
		c4.142,0,7.5-3.358,7.5-7.5s-3.358-7.5-7.5-7.5h-40h-8c-4.687,0-8.5-3.813-8.5-8.5s3.813-8.5,8.5-8.5h80
		C308.187,271,312,274.813,312,279.5z M440,119.5c0,4.687-3.813,8.5-8.5,8.5h-336c-4.687,0-8.5-3.813-8.5-8.5v-96
		c0-4.687,3.813-8.5,8.5-8.5h336c4.687,0,8.5,3.813,8.5,8.5V119.5z"/>
	<path d="M271.5,312c-4.142,0-7.5,3.358-7.5,7.5v8c0,4.142,3.358,7.5,7.5,7.5s7.5-3.358,7.5-7.5v-8
		C279,315.358,275.642,312,271.5,312z"/>
	<path d="M271.5,344c-4.142,0-7.5,3.358-7.5,7.5v40c0,4.142,3.358,7.5,7.5,7.5s7.5-3.358,7.5-7.5v-40
		C279,347.358,275.642,344,271.5,344z"/>
	<path d="M359.5,24h-192c-4.142,0-7.5,3.358-7.5,7.5s3.358,7.5,7.5,7.5h192c4.142,0,7.5-3.358,7.5-7.5S363.642,24,359.5,24z"/>
	<path d="M391.5,24h-8c-4.142,0-7.5,3.358-7.5,7.5s3.358,7.5,7.5,7.5h8c4.142,0,7.5-3.358,7.5-7.5S395.642,24,391.5,24z"/>
</g>
<g>
</g>
<g>
</g>
<g>
</g>
<g>
</g>
<g>
</g>
<g>
</g>
<g>
</g>
<g>
</g>
<g>
</g>
<g>
</g>
<g>
</g>
<g>
</g>
<g>
</g>
<g>
</g>
<g>
</g>
</svg>
