<?xml version="1.0" encoding="iso-8859-1"?>
<!-- Generator: Adobe Illustrator 17.1.0, SVG Export Plug-In . SVG Version: 6.00 Build 0)  -->
<!DOCTYPE svg PUBLIC "-//W3C//DTD SVG 1.1//EN" "http://www.w3.org/Graphics/SVG/1.1/DTD/svg11.dtd">
<svg version="1.1" id="Capa_1" xmlns="http://www.w3.org/2000/svg" xmlns:xlink="http://www.w3.org/1999/xlink" x="0px" y="0px"
	 viewBox="0 0 496.68 496.68" style="enable-background:new 0 0 496.68 496.68;" xml:space="preserve">
<g>
	<path d="M485.13,22.85l-11.314-11.313c-7.435-7.436-17.354-11.531-27.931-11.531c-10.576,0-20.495,4.095-27.93,11.531
		l-22.627,22.627L58.759,370.733c-0.013,0.013-0.023,0.027-0.036,0.04c-0.107,0.109-0.208,0.225-0.309,0.341
		c-0.063,0.073-0.129,0.143-0.189,0.218c-0.083,0.104-0.16,0.213-0.239,0.322c-0.069,0.096-0.141,0.191-0.205,0.29
		c-0.062,0.095-0.118,0.195-0.176,0.294c-0.071,0.12-0.141,0.24-0.205,0.363c-0.014,0.028-0.032,0.053-0.046,0.081L0.786,485.819
		c-0.023,0.046-0.04,0.094-0.062,0.141c-0.059,0.125-0.114,0.252-0.167,0.38c-0.045,0.109-0.088,0.218-0.127,0.327
		c-0.04,0.113-0.076,0.227-0.11,0.342c-0.038,0.125-0.075,0.25-0.106,0.376c-0.026,0.104-0.047,0.21-0.068,0.315
		c-0.027,0.134-0.053,0.268-0.073,0.402c-0.016,0.107-0.026,0.214-0.036,0.322c-0.013,0.131-0.026,0.262-0.032,0.392
		C-0.001,488.935,0,489.054,0,489.173c0,0.119-0.001,0.238,0.005,0.357c0.006,0.131,0.019,0.262,0.032,0.392
		c0.011,0.108,0.021,0.215,0.036,0.322c0.019,0.135,0.046,0.268,0.073,0.402c0.021,0.106,0.042,0.211,0.068,0.315
		c0.031,0.126,0.068,0.251,0.106,0.376c0.035,0.115,0.07,0.229,0.11,0.342c0.039,0.11,0.082,0.219,0.127,0.327
		c0.052,0.128,0.107,0.255,0.167,0.38c0.022,0.047,0.039,0.094,0.062,0.141c0.017,0.034,0.04,0.064,0.058,0.098
		c0.148,0.285,0.307,0.564,0.491,0.829c0.002,0.002,0.003,0.005,0.005,0.008c0.179,0.258,0.38,0.5,0.592,0.735
		c0.056,0.063,0.114,0.123,0.173,0.183c0.174,0.18,0.358,0.352,0.552,0.516c0.05,0.042,0.097,0.088,0.148,0.129
		c0.234,0.187,0.481,0.36,0.741,0.521c0.073,0.045,0.149,0.084,0.224,0.126c0.123,0.07,0.242,0.145,0.37,0.209
		c0.068,0.034,0.139,0.057,0.208,0.089c0.118,0.054,0.236,0.104,0.356,0.153c0.192,0.077,0.385,0.145,0.58,0.205
		c0.106,0.033,0.21,0.066,0.317,0.094c0.228,0.06,0.457,0.105,0.687,0.143c0.083,0.014,0.165,0.032,0.249,0.043
		c0.317,0.041,0.635,0.066,0.951,0.066c0.002,0,0.004,0,0.006,0s0.004,0,0.006,0c0.316,0,0.634-0.025,0.951-0.066
		c0.083-0.011,0.165-0.029,0.248-0.043c0.231-0.038,0.46-0.083,0.689-0.143c0.106-0.028,0.209-0.061,0.314-0.093
		c0.196-0.061,0.391-0.129,0.585-0.207c0.118-0.047,0.235-0.097,0.351-0.15c0.07-0.032,0.142-0.056,0.211-0.091l113.137-56.568
		c0.028-0.014,0.053-0.031,0.081-0.046c0.122-0.063,0.241-0.133,0.36-0.203c0.1-0.059,0.202-0.116,0.299-0.179
		c0.096-0.062,0.187-0.131,0.28-0.198c0.113-0.081,0.227-0.161,0.334-0.247c0.069-0.056,0.134-0.116,0.201-0.175
		c0.122-0.106,0.244-0.212,0.359-0.325c0.011-0.011,0.024-0.021,0.035-0.032l336.568-336.569l22.627-22.627
		C500.531,63.311,500.531,38.252,485.13,22.85z M107.97,430.55l-38.656,19.328l-22.525-22.525l19.328-38.656L107.97,430.55z
		 M39.718,441.494l15.454,15.455l-30.909,15.454L39.718,441.494z M120.631,421.998l-17.696-17.696
		c0.125-0.11,0.252-0.217,0.372-0.336l14.059-14.059c2.929-2.929,2.929-7.678,0-10.606c-2.929-2.929-7.678-2.929-10.606,0
		L92.7,393.36c-0.119,0.119-0.226,0.246-0.336,0.372l-17.696-17.696L400.631,50.074l17.678,17.678l-271.55,271.55
		c-2.929,2.929-2.929,7.678,0,10.606c1.464,1.464,3.384,2.197,5.303,2.197s3.839-0.732,5.303-2.197l271.55-271.55l17.678,17.678
		L120.631,421.998z M474.523,68.105l-17.324,17.324l-45.962-45.962l17.324-17.324c4.603-4.603,10.755-7.137,17.324-7.137
		c6.569,0,12.722,2.535,17.324,7.137l11.314,11.313C484.076,43.009,484.076,58.553,474.523,68.105z"/>
	<path d="M130.759,355.301l-8,8c-2.929,2.929-2.929,7.678,0,10.606c1.464,1.464,3.384,2.197,5.303,2.197s3.839-0.732,5.303-2.197
		l8-8c2.929-2.929,2.929-7.678,0-10.606C138.436,352.373,133.687,352.373,130.759,355.301z"/>
	<path d="M453.365,27.301c-2.929-2.929-7.678-2.929-10.606,0c-2.929,2.929-2.929,7.678,0,10.606l16,16
		c1.464,1.464,3.384,2.197,5.303,2.197s3.839-0.732,5.303-2.197c2.929-2.929,2.929-7.678,0-10.606L453.365,27.301z"/>
</g>
<g>
</g>
<g>
</g>
<g>
</g>
<g>
</g>
<g>
</g>
<g>
</g>
<g>
</g>
<g>
</g>
<g>
</g>
<g>
</g>
<g>
</g>
<g>
</g>
<g>
</g>
<g>
</g>
<g>
</g>
</svg>
