<?xml version="1.0" encoding="iso-8859-1"?>
<!-- Generator: Adobe Illustrator 17.1.0, SVG Export Plug-In . SVG Version: 6.00 Build 0)  -->
<!DOCTYPE svg PUBLIC "-//W3C//DTD SVG 1.1//EN" "http://www.w3.org/Graphics/SVG/1.1/DTD/svg11.dtd">
<svg version="1.1" id="Capa_1" xmlns="http://www.w3.org/2000/svg" xmlns:xlink="http://www.w3.org/1999/xlink" x="0px" y="0px"
	 viewBox="0 0 509.498 509.498" style="enable-background:new 0 0 509.498 509.498;" xml:space="preserve">
<g>
	<path d="M509.185,134.412c-1.384-9.878-7.178-18.323-15.898-23.167l-54.759-30.421c-8.816-4.898-13.781-14.896-12.355-24.88
		l1.411-9.879c1.04-7.283-1.445-14.737-6.647-19.939c-9.161-9.162-24.069-9.162-33.23,0L257.597,156.234L6.883,406.947
		C2.445,411.385,0,417.287,0,423.564s2.445,12.179,6.883,16.617c0.035,0.035,0.071,0.069,0.106,0.104l49.806,47.865
		c0.046,0.044,0.095,0.081,0.142,0.124c0.118,0.108,0.237,0.215,0.363,0.316c0.083,0.067,0.169,0.128,0.255,0.19
		c0.107,0.079,0.213,0.158,0.325,0.231c0.12,0.079,0.244,0.15,0.367,0.221c0.084,0.048,0.166,0.099,0.252,0.144
		c0.165,0.087,0.334,0.164,0.504,0.238c0.046,0.02,0.088,0.044,0.134,0.063c0.01,0.004,0.02,0.006,0.03,0.01
		c0.176,0.072,0.354,0.132,0.534,0.19c0.055,0.018,0.11,0.04,0.165,0.056c0.149,0.044,0.3,0.077,0.451,0.112
		c0.089,0.021,0.177,0.046,0.267,0.063c0.075,0.014,0.151,0.021,0.227,0.033c0.394,0.063,0.788,0.102,1.18,0.102
		c0.025,0,0.05-0.005,0.075-0.006c0.296-0.003,0.592-0.028,0.886-0.065c0.09-0.012,0.178-0.025,0.267-0.04
		c0.309-0.051,0.615-0.115,0.917-0.205c0.006-0.002,0.013-0.003,0.019-0.005c0.316-0.095,0.625-0.217,0.929-0.354
		c0.062-0.028,0.123-0.058,0.185-0.088c0.259-0.126,0.512-0.266,0.759-0.423c0.04-0.026,0.082-0.048,0.122-0.074
		c0.264-0.176,0.518-0.372,0.763-0.586c0.073-0.063,0.141-0.132,0.211-0.198c0.093-0.087,0.189-0.169,0.279-0.262
		c0.08-0.083,0.149-0.173,0.225-0.259c0.064-0.073,0.129-0.144,0.191-0.219c0.207-0.255,0.396-0.519,0.565-0.793
		c0.026-0.043,0.049-0.089,0.075-0.132c0.163-0.277,0.306-0.562,0.43-0.854c0.012-0.029,0.03-0.054,0.042-0.083l9.446-22.939
		l16.067,2.515c3.923,0.616,7.641-1.934,8.487-5.811l3.297-15.111l14.92,2.339c3.928,0.615,7.643-1.933,8.489-5.811l3.298-15.111
		l14.916,2.34c3.924,0.619,7.645-1.932,8.49-5.812l3.294-15.104l14.904,2.344c3.93,0.618,7.647-1.932,8.493-5.811l3.293-15.104
		l14.903,2.344c3.926,0.616,7.651-1.934,8.494-5.818l3.274-15.079l14.9,2.342c3.928,0.616,7.648-1.934,8.493-5.814l3.284-15.089
		l14.88,2.35c3.923,0.621,7.658-1.934,8.5-5.821l3.262-15.061l14.875,2.348c3.931,0.623,7.653-1.931,8.498-5.813l3.284-15.091
		l14.89,2.347c3.928,0.62,7.657-1.936,8.498-5.823l3.255-15.048l14.842,2.358c3.93,0.622,7.661-1.928,8.505-5.814l3.28-15.086
		l14.892,2.346c3.92,0.618,7.652-1.932,8.496-5.816l3.278-15.086l14.906,2.341c3.926,0.617,7.648-1.935,8.493-5.817l3.277-15.082
		l14.859,2.342c0.002,0,0.004,0.001,0.007,0.001l0.021,0.003c0.354,0.056,0.704,0.077,1.052,0.083
		c0.038,0.001,0.077,0.009,0.115,0.009c0.054,0,0.107-0.007,0.16-0.008c0.138-0.003,0.275-0.01,0.412-0.02
		c0.101-0.008,0.202-0.017,0.302-0.029c0.149-0.017,0.297-0.039,0.444-0.065c0.089-0.016,0.177-0.033,0.265-0.052
		c0.152-0.033,0.302-0.07,0.451-0.112c0.084-0.024,0.168-0.049,0.252-0.076c0.146-0.047,0.291-0.098,0.433-0.154
		c0.086-0.033,0.17-0.068,0.255-0.105c0.136-0.059,0.27-0.122,0.402-0.188c0.087-0.044,0.173-0.089,0.258-0.136
		c0.126-0.07,0.25-0.144,0.371-0.221c0.085-0.053,0.168-0.108,0.251-0.165c0.12-0.083,0.236-0.17,0.351-0.259
		c0.077-0.06,0.153-0.119,0.227-0.182c0.118-0.1,0.232-0.204,0.344-0.312c0.041-0.039,0.084-0.073,0.124-0.112l79.325-79.325
		C507.317,154.001,510.568,144.29,509.185,134.412z M368.242,242.78c-3.93-0.617-7.648,1.935-8.493,5.817l-3.277,15.083
		l-14.891-2.345c-3.926-0.617-7.652,1.932-8.496,5.815l-3.278,15.077l-14.85-2.359c-3.933-0.622-7.666,1.931-8.507,5.822
		l-3.257,15.056l-14.881-2.345c-3.925-0.619-7.651,1.931-8.496,5.814l-3.284,15.089l-14.882-2.349
		c-3.928-0.621-7.658,1.934-8.5,5.821l-3.262,15.061l-14.873-2.349c-3.926-0.62-7.653,1.93-8.499,5.813l-3.285,15.094l-14.903-2.343
		c-3.928-0.617-7.651,1.935-8.494,5.818l-3.274,15.079l-14.897-2.343c-3.921-0.619-7.647,1.931-8.493,5.811l-3.292,15.104
		l-14.904-2.344c-3.928-0.618-7.647,1.932-8.493,5.811l-3.294,15.107l-14.914-2.341c-3.922-0.614-7.644,1.932-8.49,5.81
		l-3.298,15.113l-14.92-2.339c-3.928-0.615-7.643,1.933-8.489,5.811l-3.297,15.113l-14.929-2.336
		c-3.421-0.535-6.774,1.346-8.095,4.554l-7.505,18.226l-41.805-40.176c-1.577-1.6-2.445-3.716-2.445-5.965
		c0-2.271,0.884-4.405,2.49-6.01l245.41-245.41l17.955,17.955c7.809,7.808,17.473,13.781,27.948,17.273l76.973,25.657l-2.627,12.092
		L368.242,242.78z M489.657,150.448l-76.048,76.047l-100.063-33.355c-8.277-2.759-15.914-7.479-22.084-13.649l-17.955-17.955
		L398.313,36.731c1.605-1.605,3.739-2.489,6.009-2.489s4.404,0.884,6.008,2.489c1.882,1.882,2.781,4.578,2.404,7.212l-1.411,9.879
		c-2.298,16.096,5.707,32.217,19.921,40.113l54.758,30.421c4.568,2.538,7.603,6.96,8.328,12.135S493.352,146.753,489.657,150.448z"
		/>
	<path d="M440.822,146.195l-76.014-37.123c-5.945-2.903-13.083-1.711-17.762,2.968l-38.537,38.537
		c-2.929,2.928-2.929,7.677-0.001,10.605l0.631,0.632c7.808,7.808,17.472,13.78,27.947,17.272l70.521,23.507
		c0.777,0.259,1.577,0.385,2.371,0.385c1.958,0,3.875-0.768,5.304-2.197l29.699-29.698c3.534-3.534,5.151-8.586,4.328-13.514
		C448.484,152.64,445.312,148.388,440.822,146.195z M434.374,160.477l-26.421,26.421l-66.123-22.042
		c-6.184-2.061-12.01-5.217-17.134-9.253l32.957-32.957c0.151-0.151,0.382-0.189,0.573-0.096l76.014,37.123
		c0.075,0.037,0.232,0.113,0.274,0.367C434.555,160.295,434.433,160.418,434.374,160.477z"/>
	<path d="M462.03,124.987l-76.014-37.123c-3.719-1.817-8.212-0.274-10.03,3.448c-1.818,3.722-0.274,8.213,3.448,10.031
		l76.014,37.123c1.059,0.517,2.181,0.762,3.286,0.762c2.776,0,5.444-1.548,6.745-4.21
		C467.296,131.295,465.752,126.804,462.03,124.987z"/>
	<path d="M251.94,195.832l-5.657,5.657c-2.929,2.929-2.929,7.678,0,10.607c1.464,1.465,3.384,2.197,5.303,2.197
		c1.919,0,3.839-0.732,5.303-2.197l5.657-5.657c2.929-2.929,2.929-7.678,0-10.607C259.618,192.903,254.869,192.903,251.94,195.832z"
		/>
	<path d="M229.313,218.459l-73.539,73.539c-2.929,2.929-2.929,7.677,0,10.606c1.464,1.465,3.384,2.197,5.303,2.197
		s3.839-0.732,5.303-2.197l73.539-73.539c2.929-2.929,2.929-7.677,0-10.606C236.99,215.53,232.241,215.53,229.313,218.459z"/>
</g>
<g>
</g>
<g>
</g>
<g>
</g>
<g>
</g>
<g>
</g>
<g>
</g>
<g>
</g>
<g>
</g>
<g>
</g>
<g>
</g>
<g>
</g>
<g>
</g>
<g>
</g>
<g>
</g>
<g>
</g>
</svg>
