<?xml version="1.0" encoding="iso-8859-1"?>
<!-- Generator: Adobe Illustrator 17.1.0, SVG Export Plug-In . SVG Version: 6.00 Build 0)  -->
<!DOCTYPE svg PUBLIC "-//W3C//DTD SVG 1.1//EN" "http://www.w3.org/Graphics/SVG/1.1/DTD/svg11.dtd">
<svg version="1.1" id="Capa_1" xmlns="http://www.w3.org/2000/svg" xmlns:xlink="http://www.w3.org/1999/xlink" x="0px" y="0px"
	 viewBox="0 0 479 479" style="enable-background:new 0 0 479 479;" xml:space="preserve">
<g>
	<path d="M469.774,65.795L413.205,9.226C407.256,3.277,399.345,0,390.932,0c-8.414,0-16.324,3.276-22.274,9.226L248.741,129.143
		c-7.717,7.717-12.928,17.454-15.072,28.175c-1.558,7.789-5.35,14.875-10.966,20.491l-30.644,30.644
		c-8.787-4.347-19.741-2.887-27.048,4.42c-9.163,9.163-9.163,24.071,0,33.234l17.324,17.324L2.197,443.569
		C0.79,444.975,0,446.883,0,448.872V471.5c0,4.142,3.358,7.5,7.5,7.5h22.627c1.989,0,3.897-0.79,5.303-2.197l180.138-180.138
		l17.324,17.324c4.581,4.582,10.599,6.872,16.617,6.872c6.018,0,12.036-2.291,16.617-6.872c7.307-7.307,8.767-18.261,4.42-27.048
		l30.644-30.644c5.617-5.616,12.702-9.408,20.491-10.966c0.023-0.005,0.048-0.01,0.075-0.016
		c10.681-2.147,20.396-7.353,28.101-15.057l119.917-119.917c5.95-5.95,9.226-13.86,9.226-22.274
		C479,79.655,475.724,71.744,469.774,65.795z M368.657,31.146c3.314,3.314,3.314,8.707,0,12.021l-90.51,90.51
		c-1.593,1.593-3.728,2.47-6.01,2.47c-2.283,0-4.417-0.877-6.011-2.47c-0.119-0.119-0.246-0.226-0.372-0.336L368.322,30.775
		C368.431,30.9,368.538,31.027,368.657,31.146z M27.021,464H15v-12.021l15.127-15.127l12.021,12.021L27.021,464z M52.755,438.266
		l-12.021-12.021l152.208-152.208l12.021,12.021L52.755,438.266z M345.659,213.244c-0.11-0.125-0.216-0.252-0.336-0.371
		c-3.314-3.314-3.314-8.707,0-12.021l90.51-90.509c3.314-3.315,8.707-3.314,12.021,0c0.119,0.119,0.246,0.226,0.371,0.336
		L345.659,213.244z M459.167,99.736l-0.371,0.371c-0.11-0.125-0.217-0.252-0.336-0.372c-9.163-9.162-24.072-9.161-33.234,0
		l-90.51,90.51c-9.162,9.163-9.162,24.071,0,33.234c0.016,0.016,0.033,0.029,0.049,0.044c-4.725,3.505-10.167,5.928-16.005,7.095
		c-0.024,0.005-0.051,0.011-0.079,0.017c-10.679,2.147-20.393,7.353-28.096,15.056l-29.761,29.761l-0.354-0.354
		c-2.929-2.929-7.678-2.929-10.606,0c-2.929,2.929-2.929,7.678,0,10.606l5.657,5.657c3.314,3.314,3.314,8.707,0,12.021
		c-3.315,3.315-8.707,3.314-12.021,0l-22.627-22.627l-22.627-22.627L175.617,235.5c-3.314-3.314-3.314-8.707,0-12.021
		c3.314-3.314,8.707-3.314,12.021,0l39.596,39.596c2.929,2.929,7.678,2.929,10.606,0c2.929-2.929,2.929-7.678,0-10.606
		l-34.292-34.292l29.761-29.761c7.717-7.717,12.928-17.453,15.073-28.175c1.167-5.837,3.59-11.28,7.095-16.005
		c0.015,0.016,0.028,0.033,0.044,0.048c4.581,4.582,10.599,6.872,16.617,6.872c6.018,0,12.036-2.291,16.617-6.872l90.51-90.51
		c9.162-9.163,9.162-24.071,0-33.234c-0.119-0.119-0.246-0.226-0.372-0.336l0.371-0.371c6.434-6.434,16.901-6.432,23.334,0
		l56.569,56.568c3.116,3.117,4.833,7.26,4.833,11.667C464,92.476,462.284,96.619,459.167,99.736z"/>
	<path d="M402.245,53.274c-6.29,0-12.191,2.438-16.617,6.864l-90.509,90.509c-4.426,4.426-6.864,10.328-6.864,16.617
		s2.438,12.191,6.864,16.617c4.582,4.582,10.598,6.872,16.617,6.872c6.017,0,12.036-2.291,16.617-6.872l39.597-39.598
		c2.929-2.929,2.929-7.678,0-10.606c-2.929-2.929-7.678-2.929-10.606,0l-39.597,39.597c-3.313,3.314-8.707,3.314-12.021,0
		c-1.593-1.593-2.47-3.728-2.47-6.011c0-2.283,0.877-4.417,2.47-6.01l90.509-90.51c1.593-1.593,3.728-2.47,6.011-2.47
		c2.283,0,4.417,0.877,6.01,2.47c3.314,3.314,3.314,8.707,0,12.021l-5.657,5.657c-2.929,2.929-2.929,7.678,0,10.606
		c2.929,2.929,7.678,2.929,10.606,0l5.657-5.657c9.163-9.163,9.163-24.071,0-33.234C414.436,55.712,408.535,53.274,402.245,53.274z"
		/>
	<path d="M385.631,105.39l-11.314,11.314c-2.929,2.929-2.929,7.678,0,10.606c1.464,1.464,3.384,2.197,5.303,2.197
		s3.839-0.732,5.303-2.197l11.314-11.314c2.929-2.929,2.929-7.678,0-10.606C393.309,102.461,388.56,102.461,385.631,105.39z"/>
</g>
<g>
</g>
<g>
</g>
<g>
</g>
<g>
</g>
<g>
</g>
<g>
</g>
<g>
</g>
<g>
</g>
<g>
</g>
<g>
</g>
<g>
</g>
<g>
</g>
<g>
</g>
<g>
</g>
<g>
</g>
</svg>
