<?xml version="1.0" encoding="iso-8859-1"?>
<!-- Generator: Adobe Illustrator 18.0.0, SVG Export Plug-In . SVG Version: 6.00 Build 0)  -->
<!DOCTYPE svg PUBLIC "-//W3C//DTD SVG 1.1//EN" "http://www.w3.org/Graphics/SVG/1.1/DTD/svg11.dtd">
<svg version="1.1" id="Capa_1" xmlns="http://www.w3.org/2000/svg" xmlns:xlink="http://www.w3.org/1999/xlink" x="0px" y="0px"
	 viewBox="0 0 311.639 311.639" style="enable-background:new 0 0 311.639 311.639;" xml:space="preserve">
<g>
	<polygon points="295.809,113.688 269.956,134.299 290.569,108.446 227.252,45.129 192.35,74.777 221.997,39.875 206.37,24.247 
		180.518,44.86 201.13,19.007 182.123,0 129.356,52.77 258.871,182.284 311.639,129.517 	"/>
	<path d="M55.605,116.744c-6.938,6.937-6.937,18.185,0,25.124l33.806,33.807l-6.65,6.65L9.643,255.443
		c-12.857,12.857-12.857,33.699,0,46.556c12.852,12.853,33.699,12.853,46.552,0.001l73.119-73.12l6.65-6.65l33.807,33.807
		c3.469,3.469,8.016,5.203,12.563,5.203c4.546,0,9.093-1.734,12.562-5.203l62.212-62.213L117.817,54.531L55.605,116.744z"/>
</g>
<g>
</g>
<g>
</g>
<g>
</g>
<g>
</g>
<g>
</g>
<g>
</g>
<g>
</g>
<g>
</g>
<g>
</g>
<g>
</g>
<g>
</g>
<g>
</g>
<g>
</g>
<g>
</g>
<g>
</g>
</svg>
