<?xml version="1.0" encoding="iso-8859-1"?>
<!-- Generator: Adobe Illustrator 18.0.0, SVG Export Plug-In . SVG Version: 6.00 Build 0)  -->
<!DOCTYPE svg PUBLIC "-//W3C//DTD SVG 1.1//EN" "http://www.w3.org/Graphics/SVG/1.1/DTD/svg11.dtd">
<svg version="1.1" id="Capa_1" xmlns="http://www.w3.org/2000/svg" xmlns:xlink="http://www.w3.org/1999/xlink" x="0px" y="0px"
	 viewBox="0 0 353.566 353.566" style="enable-background:new 0 0 353.566 353.566;" xml:space="preserve">
<g>
	<polygon points="342.888,102.644 337.259,113.091 346.968,113.091 353.566,102.644 	"/>
	<polygon points="271.273,113.091 293.472,113.091 299.1,102.644 276.902,102.644 	"/>
	<polygon points="304.268,113.091 326.463,113.091 332.092,102.644 309.896,102.644 	"/>
	<path d="M257.332,94.216l-56.915-24.405v-4.28c0-7.592-6.155-13.747-13.748-13.747H13.746C6.154,51.783,0,57.938,0,65.53v84.672
		c0,7.593,6.154,13.746,13.746,13.746h15.033L7.345,253.967c-3.682,3.155-6.023,7.83-6.023,13.06v17.551
		c0,9.502,7.704,17.206,17.205,17.206H93.89c9.502,0,17.205-7.704,17.205-17.206v-17.551c0-9.502-7.703-17.205-17.205-17.205H73.404
		l20.446-85.873h92.819c7.593,0,13.748-6.153,13.748-13.746v-4.28l56.915-24.404v-8.427h3.148l5.628-10.447h-8.776V94.216z"/>
</g>
<g>
</g>
<g>
</g>
<g>
</g>
<g>
</g>
<g>
</g>
<g>
</g>
<g>
</g>
<g>
</g>
<g>
</g>
<g>
</g>
<g>
</g>
<g>
</g>
<g>
</g>
<g>
</g>
<g>
</g>
</svg>
