<?xml version="1.0" encoding="iso-8859-1"?>
<!-- Generator: Adobe Illustrator 16.0.0, SVG Export Plug-In . SVG Version: 6.00 Build 0)  -->
<!DOCTYPE svg PUBLIC "-//W3C//DTD SVG 1.1//EN" "http://www.w3.org/Graphics/SVG/1.1/DTD/svg11.dtd">
<svg version="1.1" id="Capa_1" xmlns="http://www.w3.org/2000/svg" xmlns:xlink="http://www.w3.org/1999/xlink" x="0px" y="0px"
	 width="31.891px" height="31.891px" viewBox="0 0 31.891 31.891" style="enable-background:new 0 0 31.891 31.891;"
	 xml:space="preserve">
<g>
	<path d="M6.273,4.146l1.476-0.414L6.984,2.027L9.007,2.69l0.595-1.93l1.261,1.461l1.629-1.698l0.876,1.838l1.906-0.545L14.97,3.413
		l1.559,0.55L15.66,5.164c0.14,0.426,0.236,0.875,0.236,1.349c0,2.372-1.923,4.291-4.292,4.291s-4.29-1.919-4.29-4.291
		c0-0.24,0.022-0.479,0.06-0.707c0.03-0.185,0.087-0.361,0.139-0.536L6.273,4.146z M31.891,17.682v2.045h-1.535v11.641h-0.998
		V19.727H15.523l-0.002,1.441h1.422v0.7h-1.209v8.966h-3.071v-8.966H10.63v8.966H7.558v-8.966h-1.39v-0.7h1.623l-0.018-1.441H2.227
		v11.641H1.228V19.727H0v-2.045h4.63l2.079-5.623l2.592-0.61c0,0,0.613,1.991,2.227,1.898c1.617-0.094,2.204-1.898,2.204-1.898
		l3.07,0.555l1.146,4.333h0.037v0.152l0.315,1.193H31.891z M7.75,17.682L7.723,15.08l-0.936,2.602H7.75z M13.32,17.533H9.029v0.26
		h4.291V17.533z M15.72,13.962l-0.845-0.418l-0.354,0.719v0.002l-1.021,2.07h1.045l0.822-1.656L15.72,13.962z M16.037,16.336
		l-0.515-1.649v1.649H16.037z M14.953,13.782l-0.131,0.266l0.529,0.261l0.131-0.266L14.953,13.782z M30.701,9.062H25.04V7.325h5.661
		V9.062z M25.918,7.564h-0.641v1.262h0.641V7.564z M26.454,7.8h-0.228v0.871h0.228V7.8z M26.887,7.8H26.66v0.871h0.227V7.8z
		 M30.463,7.564h-3.137v1.262h3.137V7.564z M30.701,11.175H25.04V9.439h4.172h0.647h0.842V11.175z M25.93,9.677h-0.65v1.261h0.65
		V9.677z M26.656,9.866h-0.243v0.881h0.243V9.866z M27.057,9.868h-0.242v0.879h0.242V9.868z M29.212,9.677H27.54v1.261h1.672V9.677z
		 M29.661,9.866h-0.243v0.881h0.243V9.866z M30.463,9.677h-0.604v1.261h0.604V9.677z M30.701,15.264H25.04v-1.738h5.661V15.264z
		 M30.463,13.764h-5.186v1.262h5.186V13.764z M30.025,14.473h-2.879v0.245h2.879V14.473z M30.029,14.071h-2.877v0.244h2.877V14.071z
		 M30.701,13.218H25.04v-1.736h5.661V13.218z M30.463,11.718h-5.186v1.263h5.186V11.718z M26.672,11.919h-0.244v0.88h0.244V11.919z
		 M26.24,11.92h-0.245v0.882h0.245V11.92z M30.701,17.336H25.04V15.6h5.661V17.336z M30.463,15.836h-5.186v1.262h5.186V15.836z
		 M26.672,16.037h-0.244v0.881h0.244V16.037z M26.24,16.04h-0.245v0.878h0.245V16.04z M24.545,17.303h-1.736V13.13v-0.648v-0.84
		h1.736V17.303z M24.307,16.415h-1.262v0.651h1.262V16.415z M23.234,15.688v0.244h0.882v-0.244H23.234z M24.116,15.529v-0.243h-0.88
		v0.243H24.116z M24.307,13.13h-1.262v1.672h1.262V13.13z M24.115,12.923v-0.242h-0.881v0.242H24.115z M24.307,11.88h-1.262v0.602
		h1.262V11.88z"/>
</g>
<g>
</g>
<g>
</g>
<g>
</g>
<g>
</g>
<g>
</g>
<g>
</g>
<g>
</g>
<g>
</g>
<g>
</g>
<g>
</g>
<g>
</g>
<g>
</g>
<g>
</g>
<g>
</g>
<g>
</g>
</svg>
